# xmcd
#
# Track frame offsets:
#	150
#	15782
#	29815
#	41540
#	53655
#	61352
#	76339
#	86501
#	97017
#	106234
#	115593
#	129324
#	142164
#	156877
#	169098
#	177408
#	191847
#	208523
#	223085
#	241023
#	257795
#	270349
#
# Disc length: 3783 seconds
#
# Revision: 1
# Processed by: cddbd v1.5.2PL0 Copyright (c) Steve Scherf et al.
# Submitted via: EasyCDDAExtractor 12.0.1.1
#
DISCID=2c0ec516
DTITLE=Roger Whittaker - Durham Town
DYEAR=2000
DGENRE=Easy Listening
TTITLE0=The last farewell
TTITLE1=Hello, good morning, happy day
TTITLE2=If I were a rich man
TTITLE3=Elizabethan serenade
TTITLE4=Changekip (African Whistler)
TTITLE5=All of my life
TTITLE6=From the people
TTITLE7=Durham Town
TTITLE8=The Mexican Whistler
TTITLE9=New world in the morning
TTITLE10=Mammy blue
TTITLE11=Hold on
TTITLE12=What love is
TTITLE13=The first hello, the last goodbye
TTITLE14=Hound dog
TTITLE15=Summer in the country
TTITLE16=Summer days
TTITLE17=Fire and rain
TTITLE18=Both sides now
TTITLE19=Streets of London
TTITLE20=River lady
TTITLE21=Sloop John B
EXTD=
EXTT0=
EXTT1=
EXTT2=
EXTT3=
EXTT4=
EXTT5=
EXTT6=
EXTT7=
EXTT8=
EXTT9=
EXTT10=
EXTT11=
EXTT12=
EXTT13=
EXTT14=
EXTT15=
EXTT16=
EXTT17=
EXTT18=
EXTT19=
EXTT20=
EXTT21=
PLAYORDER=
